<?xml version="1.0" standalone="no"?>
<!DOCTYPE svg PUBLIC "-//W3C//DTD SVG 20010904//EN"
 "http://www.w3.org/TR/2001/REC-SVG-20010904/DTD/svg10.dtd">
<svg version="1.0" xmlns="http://www.w3.org/2000/svg"
 width="252.000000pt" height="252.000000pt" viewBox="0 0 252.000000 252.000000"
 preserveAspectRatio="xMidYMid meet">
<metadata>
Created by potrace 1.14, written by Peter Selinger 2001-2017
</metadata>
<g transform="translate(0.000000,252.000000) scale(0.100000,-0.100000)"
fill="#000000" stroke="none">
<path d="M1590 2503 c-335 -56 -594 -295 -671 -618 -30 -130 -28 -282 7 -402
83 -287 320 -509 609 -573 278 -61 567 32 764 246 408 444 204 1156 -380 1324
-71 21 -263 34 -329 23z m280 -151 c69 -17 158 -59 227 -108 330 -235 373
-712 91 -1006 -67 -70 -106 -98 -195 -142 -126 -63 -302 -83 -443 -51 -189 45
-359 181 -443 356 -55 114 -75 198 -72 304 3 91 11 141 32 205 111 333 458
523 803 442z"/>
<path d="M1581 2284 c-222 -47 -408 -230 -457 -452 -15 -69 -16 -218 -1 -277
24 -96 98 -219 173 -288 196 -183 488 -216 712 -80 443 269 366 928 -128 1084
-80 25 -213 31 -299 13z m224 -208 c60 -36 89 -86 90 -156 0 -33 -7 -68 -17
-89 -10 -19 -18 -35 -18 -36 0 -1 19 -1 43 0 50 3 77 -9 77 -34 0 -31 -22 -39
-104 -37 -76 1 -82 -1 -123 -32 -24 -18 -43 -34 -43 -35 0 -2 53 -3 117 -2
104 1 119 -1 140 -20 22 -18 23 -22 9 -40 -13 -18 -27 -20 -184 -20 -94 0
-174 -4 -179 -9 -4 -4 -8 -34 -8 -67 0 -50 4 -62 27 -85 35 -36 111 -43 192
-20 63 19 86 11 86 -26 0 -44 -175 -85 -254 -58 -98 32 -153 135 -125 232 4
15 5 28 1 29 -4 1 -25 2 -47 3 -49 2 -65 11 -65 36 0 28 18 35 92 36 54 1 72
5 96 25 52 41 47 45 -62 44 -109 -2 -136 5 -136 34 0 40 25 46 190 46 170 0
178 3 206 56 34 66 0 149 -69 168 -41 11 -105 5 -151 -14 -42 -18 -76 -7 -76
24 0 26 21 40 87 61 77 24 152 19 208 -14z"/>
<path d="M977 864 c-1 -1 -31 -5 -67 -9 -36 -4 -72 -8 -80 -10 -8 -1 -40 -6
-70 -9 -115 -14 -213 -35 -221 -48 -5 -7 -7 -168 -6 -358 3 -307 5 -345 20
-348 9 -2 24 5 34 15 35 35 78 60 97 57 11 -1 53 -11 95 -20 93 -22 90 -21 94
-24 3 -2 5 -2 137 -30 58 -12 143 -30 190 -40 120 -26 174 -32 318 -31 110 0
148 5 278 35 187 44 218 55 322 125 46 31 95 62 108 69 13 7 53 42 88 77 78
77 95 121 71 183 -26 65 -84 69 -212 16 -114 -47 -225 -79 -398 -115 -202 -41
-228 -44 -350 -44 -91 0 -118 4 -157 22 -52 24 -78 56 -85 108 -4 32 -2 35 21
35 13 0 58 -7 98 -15 292 -62 476 -22 462 99 -2 16 -11 37 -21 47 -19 19 -316
118 -504 168 -96 26 -254 53 -262 45z"/>
<path d="M20 801 c-13 -5 -15 -55 -15 -369 l0 -362 70 0 c73 1 91 8 117 50 12
21 14 73 13 320 -1 318 -3 328 -55 350 -30 12 -109 19 -130 11z"/>
<path d="M260 434 l0 -364 68 0 c148 0 143 -12 144 359 1 266 -1 300 -16 324
-21 32 -63 45 -138 45 l-58 0 0 -364z"/>
</g>
</svg>
