<svg width="147" height="51" viewBox="0 0 147 51" fill="none" xmlns="http://www.w3.org/2000/svg">
<path d="M13.4912 28.7331L17.4928 29.9907C16.9212 32.163 15.8922 33.878 14.4059 34.907C13.0339 35.936 11.3189 36.5077 9.14658 36.5077C6.51694 36.5077 4.34463 35.593 2.51531 33.7637C0.914658 31.9344 0 29.5334 0 26.3321C0 23.0165 0.914658 20.3868 2.62964 18.5575C4.34463 16.7282 6.51694 15.8135 9.37525 15.8135C11.8906 15.8135 13.8342 16.4995 15.3205 17.9858C16.2352 18.7862 16.9212 20.0438 17.3785 21.6445L13.3769 22.5591C13.1482 21.5301 12.6909 20.7298 11.8906 20.1582C11.2046 19.5865 10.2899 19.2435 9.14658 19.2435C7.66026 19.2435 6.51694 19.8152 5.60228 20.8441C4.68762 21.8731 4.11596 23.5881 4.11596 25.9891C4.11596 28.5044 4.57329 30.3337 5.48795 31.4771C6.40261 32.506 7.66026 33.0777 9.14658 33.0777C10.1756 33.0777 11.0902 32.7347 11.8906 32.0487C12.6909 31.3627 13.2625 30.2194 13.4912 28.7331Z" fill="#5DBA45"/>
<path d="M20.9242 36.1639V16.1557H29.4991C31.5571 16.1557 33.1577 16.2701 34.1867 16.7274C35.1014 17.0704 35.9017 17.642 36.4734 18.5567C37.045 19.4714 37.388 20.6147 37.388 21.758C37.388 23.2443 36.9307 24.502 36.016 25.531C35.1014 26.4456 33.8437 27.1316 32.1287 27.3603C32.9291 27.8176 33.6151 28.3893 34.1867 28.9609C34.7584 29.6469 35.5587 30.6759 36.4734 32.2766L38.9887 36.1639H34.1867L31.2141 31.8192C30.1851 30.2186 29.4991 29.3039 29.0418 28.8466C28.6988 28.5036 28.3558 28.1606 27.8984 28.0463C27.4411 27.9319 26.7551 27.8176 25.8405 27.8176H25.0401V36.1639H20.9242ZM25.0401 24.6163H28.0128C29.9564 24.6163 31.0997 24.502 31.6714 24.3876C32.1287 24.159 32.4717 23.9303 32.8147 23.473C33.0434 23.13 33.1577 22.6727 33.1577 21.9867C33.1577 21.3007 33.0434 20.8433 32.5861 20.386C32.2431 19.9287 31.7857 19.7 31.0997 19.5857C30.7568 19.5857 29.8421 19.4714 28.1271 19.4714H25.0401V24.6163Z" fill="#5DBA45"/>
<path d="M41.1608 36.1639V16.1557H56.024V19.4714H45.1624V23.9303H55.2237V27.3603H45.1624V32.7339H56.367V36.1639H41.1608Z" fill="#5DBA45"/>
<path d="M59.7942 16.1557H67.2258C68.8265 16.1557 70.1985 16.2701 70.9988 16.4987C72.1421 16.8417 73.1711 17.5277 73.9714 18.328C74.8861 19.2427 75.4577 20.386 75.9151 21.6437C76.3724 22.9013 76.6011 24.502 76.6011 26.3313C76.6011 28.0463 76.3724 29.4183 76.0294 30.5616C75.4577 32.0479 74.7717 33.3056 73.8571 34.1059C73.1711 34.7919 72.1421 35.3635 70.9988 35.7065C70.0841 36.0495 68.9408 36.1639 67.4545 36.1639H59.7942V16.1557ZM63.9102 19.4714V32.7339H66.8828C68.0261 32.7339 68.8265 32.7339 69.2838 32.6196C69.9698 32.3909 70.5415 32.1622 70.9988 31.8192C71.3418 31.3619 71.7991 30.6759 72.0278 29.8756C72.2564 28.9609 72.3708 27.7033 72.3708 26.217C72.3708 24.6163 72.2564 23.473 72.0278 22.5583C71.7991 21.758 71.3418 21.072 70.8844 20.6147C70.4271 20.1573 69.7411 19.9287 69.0551 19.7C68.4835 19.5857 67.3401 19.4714 65.7395 19.4714H63.9102Z" fill="#5DBA45"/>
<path d="M79.9168 36.1639V16.1557H83.9184V36.1639H79.9168Z" fill="#5DBA45"/>
<path d="M92.3795 36.1639V19.4714H86.4342V16.1557H102.326V19.4714H96.3811V36.1639H92.3795Z" fill="#5DBA45"/>
<path d="M111.932 33.6482L117.305 33.0766C117.42 34.1056 117.763 34.9059 118.334 35.4776C118.792 35.9349 119.592 36.2779 120.392 36.2779C121.536 36.2779 122.45 35.7062 123.251 34.6772C124.051 33.6482 124.508 31.4759 124.737 28.1603C123.365 29.761 121.65 30.5613 119.592 30.5613C117.42 30.5613 115.476 29.761 113.875 28.046C112.16 26.2167 111.36 24.0443 111.36 21.186C111.36 18.3277 112.275 16.0411 113.99 14.2118C115.705 12.4968 117.877 11.5821 120.507 11.5821C123.365 11.5821 125.766 12.7254 127.595 14.8978C129.539 17.1844 130.454 20.843 130.454 25.988C130.454 31.2473 129.425 35.0202 127.595 37.3069C125.652 39.5935 123.136 40.7368 120.049 40.7368C117.763 40.7368 116.048 40.1652 114.676 39.0219C113.304 37.7642 112.389 36.0492 111.932 33.6482ZM124.28 21.6434C124.28 19.9284 123.937 18.5564 123.136 17.6417C122.222 16.6127 121.307 16.1554 120.278 16.1554C119.249 16.1554 118.449 16.4984 117.763 17.2987C117.077 18.0991 116.734 19.471 116.734 21.186C116.734 23.0153 117.077 24.3873 117.877 25.302C118.563 26.1023 119.478 26.5596 120.621 26.5596C121.65 26.5596 122.45 26.1023 123.251 25.302C123.937 24.5017 124.28 23.244 124.28 21.6434Z" fill="#00A0E3"/>
<path d="M13.4912 28.7331L17.4928 29.9907C16.9212 32.163 15.8922 33.878 14.4059 34.907C13.0339 35.936 11.3189 36.5077 9.14658 36.5077C6.51694 36.5077 4.34463 35.593 2.51531 33.7637C0.914658 31.9344 0 29.5334 0 26.3321C0 23.0165 0.914658 20.3868 2.62964 18.5575C4.34463 16.7282 6.51694 15.8135 9.37525 15.8135C11.8906 15.8135 13.8342 16.4995 15.3205 17.9858C16.2352 18.7862 16.9212 20.0438 17.3785 21.6445L13.3769 22.5591C13.1482 21.5301 12.6909 20.7298 11.8906 20.1582C11.2046 19.5865 10.2899 19.2435 9.14658 19.2435C7.66026 19.2435 6.51694 19.8152 5.60228 20.8441C4.68762 21.8731 4.11596 23.5881 4.11596 25.9891C4.11596 28.5044 4.57329 30.3337 5.48795 31.4771C6.40261 32.506 7.66026 33.0777 9.14658 33.0777C10.1756 33.0777 11.0902 32.7347 11.8906 32.0487C12.6909 31.3627 13.2625 30.2194 13.4912 28.7331ZM20.9228 36.1647V16.1565H29.4977C31.5557 16.1565 33.1564 16.2709 34.1853 16.7282C35.1 17.0712 35.9003 17.6428 36.472 18.5575C37.0437 19.4722 37.3866 20.6155 37.3866 21.7588C37.3866 23.2451 36.9293 24.5028 36.0147 25.5318C35.1 26.4464 33.8423 27.1324 32.1274 27.3611C32.9277 27.8184 33.6137 28.3901 34.1853 28.9617C34.757 29.6477 35.5573 30.6767 36.472 32.2774L38.9873 36.1647H34.1853L31.2127 31.82C30.1837 30.2194 29.4977 29.3047 29.0404 28.8474C28.6974 28.5044 28.3544 28.1614 27.8971 28.0471C27.4397 27.9328 26.7537 27.8184 25.8391 27.8184H25.0388V36.1647H20.9228ZM25.0388 24.6171H28.0114C29.9551 24.6171 31.0984 24.5028 31.67 24.3884C32.1274 24.1598 32.4704 23.9311 32.8134 23.4738C33.042 23.1308 33.1564 22.6735 33.1564 21.9875C33.1564 21.3015 33.042 20.8441 32.5847 20.3868C32.2417 19.9295 31.7844 19.7008 31.0984 19.5865C30.7554 19.5865 29.8407 19.4722 28.1257 19.4722H25.0388V24.6171ZM41.1596 36.1647V16.1565H56.0228V19.4722H45.1612V23.9311H55.2225V27.3611H45.1612V32.7347H56.3658V36.1647H41.1596ZM59.7958 16.1565H67.2274C68.828 16.1565 70.2 16.2709 71.0003 16.4995C72.1437 16.8425 73.1726 17.5285 73.973 18.3288C74.8876 19.2435 75.4593 20.3868 75.9166 21.6445C76.3739 22.9021 76.6026 24.5028 76.6026 26.3321C76.6026 28.0471 76.3739 29.4191 76.031 30.5624C75.4593 32.0487 74.7733 33.3064 73.8586 34.1067C73.1726 34.7927 72.1437 35.3643 71.0003 35.7073C70.0857 36.0503 68.9424 36.1647 67.456 36.1647H59.7958V16.1565ZM63.9117 19.4722V32.7347H66.8844C68.0277 32.7347 68.828 32.7347 69.2853 32.6204C69.9713 32.3917 70.543 32.163 71.0003 31.82C71.3433 31.3627 71.8007 30.6767 72.0293 29.8764C72.258 28.9617 72.3723 27.7041 72.3723 26.2178C72.3723 24.6171 72.258 23.4738 72.0293 22.5591C71.8007 21.7588 71.3433 21.0728 70.886 20.6155C70.4287 20.1582 69.7427 19.9295 69.0567 19.7008C68.485 19.5865 67.3417 19.4722 65.7411 19.4722H63.9117ZM79.9182 36.1647V16.1565H83.9199V36.1647H79.9182ZM92.3805 36.1647V19.4722H86.4352V16.1565H102.327V19.4722H96.3821V36.1647H92.3805Z" fill="url(#paint0_linear)"/>
<path fill-rule="evenodd" clip-rule="evenodd" d="M121.079 1.40677C134.799 1.40677 145.889 12.497 145.889 26.1025C145.889 39.8224 134.799 50.9126 121.079 50.9126C114.79 50.9126 109.074 48.5117 104.729 44.7387V44.6244C108.96 47.597 114.219 49.1977 120.05 48.626L125.652 48.283C128.053 47.8257 131.597 46.225 133.655 44.853C135.599 43.481 138.343 40.8514 139.715 38.7934C141.087 36.8498 142.573 33.1911 143.031 30.7902L143.488 26.3312L143.031 21.7579C142.573 19.3569 141.087 15.8126 139.715 13.7547C138.343 11.811 135.599 9.06703 133.655 7.69505C132.169 6.78039 129.882 5.63707 127.71 4.95107C119.821 2.09277 109.989 3.69342 103.243 9.18137L103.129 9.06703C107.702 4.37941 114.104 1.40677 121.079 1.40677Z" fill="#5DBA45" fill-opacity="0.501961"/>
<path fill-rule="evenodd" clip-rule="evenodd" d="M127.824 1.40612C141.087 5.06475 148.747 18.6703 145.089 31.8185C141.43 45.081 127.824 52.7413 114.676 49.0827C109.303 47.5963 104.844 44.5094 101.757 40.5077C104.844 43.4804 108.731 45.5384 113.304 46.3387C113.533 46.453 113.876 46.5674 114.219 46.5674L119.707 47.7107C122.108 47.9393 125.995 47.3677 128.282 46.6817C130.568 45.8814 133.884 43.9377 135.713 42.4514C137.657 40.8507 140.058 37.7638 141.201 35.5915L142.802 31.3612L143.602 26.9022C143.717 24.5012 143.259 20.6139 142.459 18.3273C141.659 16.0406 139.829 12.725 138.229 10.8957C136.628 8.95205 133.541 6.55107 131.369 5.40775L127.024 3.8071C121.536 1.40612 115.134 1.40612 109.646 3.34977C115.019 0.49146 121.536 -0.423198 127.824 1.40612Z" fill="#00A0E3"/>
<path fill-rule="evenodd" clip-rule="evenodd" d="M127.824 1.40612C141.087 5.06475 148.747 18.6703 145.089 31.8185C141.43 45.081 127.824 52.7413 114.676 49.0827C109.303 47.5963 104.844 44.5094 101.757 40.5077C104.844 43.4804 108.731 45.5384 113.304 46.3387C113.533 46.453 113.876 46.5674 114.219 46.5674L119.707 47.7107C122.108 47.9393 125.995 47.3677 128.282 46.6817C130.568 45.8814 133.884 43.9377 135.713 42.4514C137.657 40.8507 140.058 37.7638 141.201 35.5915L142.802 31.3612L143.602 26.9022C143.717 24.5012 143.259 20.6139 142.459 18.3273C141.659 16.0406 139.829 12.725 138.229 10.8957C136.628 8.95205 133.541 6.55107 131.369 5.40775L127.024 3.8071C121.536 1.40612 115.134 1.40612 109.646 3.34977C115.019 0.49146 121.536 -0.423198 127.824 1.40612Z" fill="url(#paint1_linear)"/>
<path fill-rule="evenodd" clip-rule="evenodd" d="M2.62978 15.584C2.85844 10.5534 2.85844 5.29409 7.43173 1.97845C10.8617 -0.422526 15.092 0.0348027 18.9793 0.0348027C34.1855 0.0348027 75.0009 0.0348027 90.2071 0.0348027L89.8641 1.40679C88.9494 4.95109 88.2634 7.35207 85.0621 9.52438C81.9751 11.5824 78.4308 11.125 75.0009 11.125C63.1103 11.125 25.7249 11.0107 13.8343 11.125C10.633 11.125 8.11772 11.2394 5.37375 12.84L4.80209 13.183L3.88743 13.9833L2.62978 15.584Z" fill="#00A0E3"/>
<path d="M16.1562 7.2625C16.3411 7.2625 16.4844 7.21302 16.5859 7.11406C16.6875 7.0125 16.737 6.87188 16.7344 6.69219H17.9688C17.9688 7.15573 17.8021 7.53594 17.4688 7.83281C17.138 8.12969 16.7109 8.27813 16.1875 8.27813C15.5729 8.27813 15.0885 8.08542 14.7344 7.7C14.3802 7.31458 14.2031 6.78073 14.2031 6.09844V6.04375C14.2031 5.61667 14.2812 5.24037 14.4375 4.91484C14.5964 4.58672 14.8242 4.33542 15.1211 4.16094C15.418 3.98385 15.7695 3.89531 16.1758 3.89531C16.7253 3.89531 17.1615 4.04766 17.4844 4.35234C17.8073 4.65703 17.9688 5.06979 17.9688 5.59063H16.7344C16.7344 5.37188 16.681 5.20391 16.5742 5.08672C16.4674 4.96953 16.3242 4.91094 16.1445 4.91094C15.8034 4.91094 15.6042 5.12839 15.5469 5.56328C15.5286 5.7013 15.5195 5.89141 15.5195 6.13359C15.5195 6.55807 15.5703 6.85234 15.6719 7.01641C15.7734 7.18047 15.9349 7.2625 16.1562 7.2625ZM20.2383 5.1375L20.8516 3.97344H22.2188L21.1055 6.03203L22.2734 8.2H20.8984L20.2344 6.95L19.582 8.2H18.1992L19.3711 6.03203L18.2617 3.97344H19.6445L20.2383 5.1375ZM22.7305 8.2V3.97344H24.543C25.1237 3.97344 25.5677 4.075 25.875 4.27813C26.1849 4.48125 26.3398 4.77422 26.3398 5.15703C26.3398 5.35234 26.2721 5.52813 26.1367 5.68438C26.0013 5.83802 25.8034 5.95651 25.543 6.03984C25.8789 6.09714 26.138 6.20912 26.3203 6.37578C26.5026 6.53984 26.5938 6.74557 26.5938 6.99297C26.5938 7.39141 26.4427 7.69219 26.1406 7.89531C25.8411 8.09583 25.4089 8.1974 24.8438 8.2H22.7305ZM24.0508 6.47734V7.19219H24.8203C24.9844 7.19219 25.1016 7.16354 25.1719 7.10625C25.2422 7.04896 25.2773 6.96172 25.2773 6.84453C25.2773 6.61016 25.1419 6.48776 24.8711 6.47734H24.0508ZM24.0508 5.66484H24.5938C24.7526 5.66484 24.8633 5.6388 24.9258 5.58672C24.9909 5.53203 25.0234 5.4526 25.0234 5.34844C25.0234 5.21302 24.9844 5.11797 24.9062 5.06328C24.8281 5.00859 24.707 4.98125 24.543 4.98125H24.0508V5.66484ZM29.5156 8.2C29.4688 8.11406 29.4271 7.98776 29.3906 7.82109C29.1484 8.12578 28.8099 8.27813 28.375 8.27813C27.9766 8.27813 27.638 8.15833 27.3594 7.91875C27.0807 7.67656 26.9414 7.37318 26.9414 7.00859C26.9414 6.55026 27.1107 6.20391 27.4492 5.96953C27.7878 5.73516 28.2799 5.61797 28.9258 5.61797H29.332V5.39531C29.332 5.00729 29.1641 4.81328 28.8281 4.81328C28.5156 4.81328 28.3594 4.96693 28.3594 5.27422H27.043C27.043 4.86537 27.2161 4.53333 27.5625 4.27813C27.9115 4.02292 28.3555 3.89531 28.8945 3.89531C29.4336 3.89531 29.8594 4.02682 30.1719 4.28984C30.4844 4.55287 30.6445 4.91354 30.6523 5.37188V7.24297C30.6576 7.63099 30.7174 7.92787 30.832 8.13359V8.2H29.5156ZM28.6914 7.34063C28.8555 7.34063 28.9909 7.30547 29.0977 7.23516C29.207 7.16484 29.2852 7.08542 29.332 6.99688V6.32109H28.9492C28.4909 6.32109 28.2617 6.52682 28.2617 6.93828C28.2617 7.05807 28.3021 7.15573 28.3828 7.23125C28.4635 7.30417 28.5664 7.34063 28.6914 7.34063ZM35.1602 3.97344V8.2H33.8438V4.98906H33.0547L32.9844 6.28203C32.9349 6.92266 32.7904 7.40182 32.5508 7.71953C32.3112 8.03724 31.9557 8.1974 31.4844 8.2H31.0703L31.0547 7.19219L31.1914 7.17656C31.3659 7.15573 31.4948 7.03984 31.5781 6.82891C31.6641 6.61537 31.7188 6.29375 31.7422 5.86406L31.8242 3.97344H35.1602ZM37.3086 5.53594H37.7227C37.8164 5.02292 38.0378 4.62188 38.3867 4.33281C38.7383 4.04115 39.181 3.89531 39.7148 3.89531C40.319 3.89531 40.8021 4.0763 41.1641 4.43828C41.526 4.79766 41.7227 5.28333 41.7539 5.89531L41.7578 6.12969C41.7578 6.78073 41.5755 7.30156 41.2109 7.69219C40.8464 8.08281 40.3503 8.27813 39.7227 8.27813C39.1706 8.27813 38.7161 8.12708 38.3594 7.825C38.0052 7.52031 37.7891 7.09714 37.7109 6.55547H37.3086V8.2H35.9883V3.97344H37.3086V5.53594ZM38.9961 6.12969C38.9961 6.52031 39.0573 6.80677 39.1797 6.98906C39.3021 7.17135 39.4831 7.2625 39.7227 7.2625C40.1914 7.2625 40.431 6.90182 40.4414 6.18047V6.04766C40.4414 5.28984 40.1992 4.91094 39.7148 4.91094C39.2747 4.91094 39.0365 5.23776 39 5.89141L38.9961 6.12969ZM44.1094 7.2625C44.2943 7.2625 44.4375 7.21302 44.5391 7.11406C44.6406 7.0125 44.6901 6.87188 44.6875 6.69219H45.9219C45.9219 7.15573 45.7552 7.53594 45.4219 7.83281C45.0911 8.12969 44.6641 8.27813 44.1406 8.27813C43.526 8.27813 43.0417 8.08542 42.6875 7.7C42.3333 7.31458 42.1562 6.78073 42.1562 6.09844V6.04375C42.1562 5.61667 42.2344 5.24037 42.3906 4.91484C42.5495 4.58672 42.7773 4.33542 43.0742 4.16094C43.3711 3.98385 43.7227 3.89531 44.1289 3.89531C44.6784 3.89531 45.1146 4.04766 45.4375 4.35234C45.7604 4.65703 45.9219 5.06979 45.9219 5.59063H44.6875C44.6875 5.37188 44.6341 5.20391 44.5273 5.08672C44.4206 4.96953 44.2773 4.91094 44.0977 4.91094C43.9076 4.91094 43.7617 4.97734 43.6602 5.11016C43.5586 5.24037 43.4974 5.46823 43.4766 5.79375H44.5039V6.50859H43.4883C43.5143 6.77943 43.5781 6.97344 43.6797 7.09063C43.7839 7.20521 43.9271 7.2625 44.1094 7.2625ZM49.0781 6.74688L50.0352 3.97344H51.6914V8.2H50.3711V5.85625L49.5195 8.2H48.6445L47.8398 5.98125V8.2H46.5195V3.97344H48.1367L49.0781 6.74688ZM52.4062 6.04766C52.4062 5.62578 52.4883 5.25078 52.6523 4.92266C52.8164 4.59193 53.0521 4.33802 53.3594 4.16094C53.6667 3.98385 54.0273 3.89531 54.4414 3.89531C55.0742 3.89531 55.5729 4.09193 55.9375 4.48516C56.3021 4.87578 56.4844 5.40833 56.4844 6.08281V6.12969C56.4844 6.78854 56.3008 7.31198 55.9336 7.7C55.569 8.08542 55.0742 8.27813 54.4492 8.27813C53.8477 8.27813 53.3646 8.09844 53 7.73906C52.6354 7.37708 52.4388 6.8875 52.4102 6.27031L52.4062 6.04766ZM53.7227 6.12969C53.7227 6.52031 53.7839 6.80677 53.9062 6.98906C54.0286 7.17135 54.2096 7.2625 54.4492 7.2625C54.918 7.2625 55.1576 6.90182 55.168 6.18047V6.04766C55.168 5.28984 54.9258 4.91094 54.4414 4.91094C54.0013 4.91094 53.763 5.23776 53.7266 5.89141L53.7227 6.12969ZM59.1445 8.2V3.97344H60.957C61.5378 3.97344 61.9818 4.075 62.2891 4.27813C62.599 4.48125 62.7539 4.77422 62.7539 5.15703C62.7539 5.35234 62.6862 5.52813 62.5508 5.68438C62.4154 5.83802 62.2174 5.95651 61.957 6.03984C62.293 6.09714 62.5521 6.20912 62.7344 6.37578C62.9167 6.53984 63.0078 6.74557 63.0078 6.99297C63.0078 7.39141 62.8568 7.69219 62.5547 7.89531C62.2552 8.09583 61.8229 8.1974 61.2578 8.2H59.1445ZM60.4648 6.47734V7.19219H61.2344C61.3984 7.19219 61.5156 7.16354 61.5859 7.10625C61.6562 7.04896 61.6914 6.96172 61.6914 6.84453C61.6914 6.61016 61.556 6.48776 61.2852 6.47734H60.4648ZM60.4648 5.66484H61.0078C61.1667 5.66484 61.2773 5.6388 61.3398 5.58672C61.4049 5.53203 61.4375 5.4526 61.4375 5.34844C61.4375 5.21302 61.3984 5.11797 61.3203 5.06328C61.2422 5.00859 61.1211 4.98125 60.957 4.98125H60.4648V5.66484ZM65.3359 7.2625C65.5208 7.2625 65.6641 7.21302 65.7656 7.11406C65.8672 7.0125 65.9167 6.87188 65.9141 6.69219H67.1484C67.1484 7.15573 66.9818 7.53594 66.6484 7.83281C66.3177 8.12969 65.8906 8.27813 65.3672 8.27813C64.7526 8.27813 64.2682 8.08542 63.9141 7.7C63.5599 7.31458 63.3828 6.78073 63.3828 6.09844V6.04375C63.3828 5.61667 63.4609 5.24037 63.6172 4.91484C63.776 4.58672 64.0039 4.33542 64.3008 4.16094C64.5977 3.98385 64.9492 3.89531 65.3555 3.89531C65.9049 3.89531 66.3411 4.04766 66.6641 4.35234C66.987 4.65703 67.1484 5.06979 67.1484 5.59063H65.9141C65.9141 5.37188 65.8607 5.20391 65.7539 5.08672C65.6471 4.96953 65.5039 4.91094 65.3242 4.91094C64.9831 4.91094 64.7839 5.12839 64.7266 5.56328C64.7083 5.7013 64.6992 5.89141 64.6992 6.13359C64.6992 6.55807 64.75 6.85234 64.8516 7.01641C64.9531 7.18047 65.1146 7.2625 65.3359 7.2625ZM69.0938 8.2H67.7734V3.97344H69.0938V8.2ZM67.6953 2.88359C67.6953 2.69609 67.763 2.54245 67.8984 2.42266C68.0339 2.30287 68.2096 2.24297 68.4258 2.24297C68.6419 2.24297 68.8177 2.30287 68.9531 2.42266C69.0885 2.54245 69.1562 2.69609 69.1562 2.88359C69.1562 3.07109 69.0885 3.22474 68.9531 3.34453C68.8177 3.46432 68.6419 3.52422 68.4258 3.52422C68.2096 3.52422 68.0339 3.46432 67.8984 3.34453C67.763 3.22474 67.6953 3.07109 67.6953 2.88359ZM72.5547 6.74688L73.5117 3.97344H75.168V8.2H73.8477V5.85625L72.9961 8.2H72.1211L71.3164 5.98125V8.2H69.9961V3.97344H71.6133L72.5547 6.74688Z" fill="white"/>
<defs>
<linearGradient id="paint0_linear" x1="100.132" y1="44.0745" x2="-13.0059" y2="12.4686" gradientUnits="userSpaceOnUse">
<stop stop-color="#00A0E3"/>
<stop offset="1" stop-color="#00A0E3" stop-opacity="0"/>
</linearGradient>
<linearGradient id="paint1_linear" x1="123.879" y1="0.459419" x2="123.879" y2="49.9953" gradientUnits="userSpaceOnUse">
<stop stop-color="#50B65C"/>
<stop offset="1" stop-color="white" stop-opacity="0"/>
</linearGradient>
</defs>
</svg>
