<?xml version="1.0" encoding="utf-8"?>
<!-- Generator: Adobe Illustrator 21.0.0, SVG Export Plug-In . SVG Version: 6.00 Build 0)  -->
<svg version="1.1" id="Слой_1" xmlns="http://www.w3.org/2000/svg" xmlns:xlink="http://www.w3.org/1999/xlink" x="0px" y="0px"
	 viewBox="0 0 140 32.7" style="enable-background:new 0 0 140 32.7;" xml:space="preserve">
<style type="text/css">
	.st0{fill:#0055B8;}
	.st1{fill:#FFFFFF;}
	.st2{fill:#C2E812;}
</style>
<rect class="st0" width="140" height="32.7"/>
<path class="st1" d="M47.8,24.6V11.7h2.7v5.6l4.4-5.6h3l-4.7,6l4.9,6.9h-3.2l-4.4-6.2v6.2H47.8z"/>
<path class="st1" d="M66.6,23.3c-0.8,1-2,1.5-3.5,1.5c-1.5,0-2.7-0.5-3.5-1.4c-0.8-1-1.2-2.1-1.2-3.5c0-1.3,0.4-2.5,1.2-3.5
	c0.8-1,2-1.5,3.5-1.5c1,0,1.9,0.2,2.7,0.7c0.7,0.5,1.3,1.1,1.6,1.8c0.3,0.7,0.5,1.5,0.5,2.3C67.8,21.2,67.4,22.3,66.6,23.3z
	 M63.1,22.9c1.3,0,2-1,2-3c0-0.9-0.2-1.7-0.5-2.2c-0.3-0.6-0.9-0.8-1.6-0.8c-1.3,0-1.9,1-1.9,3c0,0.9,0.2,1.7,0.5,2.2
	C61.9,22.6,62.4,22.9,63.1,22.9z"/>
<path class="st1" d="M72.2,24.8c-1.3,0-2.5-0.3-3.3-0.9l0.9-1.8c0.7,0.5,1.5,0.8,2.3,0.8c1,0,1.5-0.3,1.5-0.8c0-0.1,0-0.2-0.1-0.3
	c-0.1-0.1-0.2-0.2-0.3-0.3c-0.2-0.1-0.3-0.2-0.5-0.2c-0.2-0.1-0.4-0.2-0.7-0.3c-0.3-0.1-0.5-0.2-0.8-0.3c-0.7-0.3-1.2-0.7-1.6-1.1
	c-0.3-0.4-0.5-1-0.5-1.7c0-0.9,0.3-1.6,0.9-2.1c0.6-0.5,1.5-0.8,2.6-0.8c1.2,0,2.2,0.3,3,0.8l-0.9,1.8c-0.6-0.4-1.3-0.6-2-0.6
	c-0.9,0-1.3,0.3-1.3,0.8c0,0.1,0,0.2,0.1,0.3c0.1,0.1,0.2,0.2,0.3,0.3s0.3,0.2,0.4,0.2c0.1,0,0.3,0.1,0.6,0.2
	c0.3,0.1,0.5,0.2,0.6,0.2c0.8,0.4,1.5,0.7,1.9,1.2c0.4,0.4,0.7,1,0.7,1.7c0,1-0.3,1.7-1,2.2C74.3,24.6,73.4,24.8,72.2,24.8z"/>
<path class="st1" d="M77.7,24.6V10.7h2.6v5.6c0.8-0.9,1.8-1.4,2.9-1.4c1,0,1.7,0.3,2.1,0.8c0.5,0.5,0.7,1.3,0.7,2.2v6.6h-2.6v-6.1
	c0-0.5-0.1-0.8-0.3-1.1c-0.2-0.2-0.5-0.3-0.9-0.3c-0.7,0-1.3,0.4-2,1.2v6.3H77.7z"/>
<path class="st1" d="M92.7,24.8c-1.5,0-2.8-0.5-3.6-1.4c-0.9-0.9-1.3-2.1-1.3-3.6c0-1.5,0.4-2.6,1.3-3.5c0.9-0.9,2-1.4,3.3-1.4
	c1.3,0,2.3,0.4,3,1.2c0.7,0.8,1.1,1.9,1.1,3.4c0,0.2,0,0.5,0,0.9h-5.9c0.1,0.7,0.3,1.3,0.7,1.8c0.4,0.4,1,0.7,1.7,0.7
	c0.8,0,1.6-0.2,2.5-0.7l0.8,1.7C95.2,24.5,94,24.8,92.7,24.8z M90.5,18.7h3.5c0-1.3-0.6-1.9-1.6-1.9C91.4,16.8,90.8,17.4,90.5,18.7z
	"/>
<path class="st1" d="M98.6,24.6V10.7h2.6v13.9H98.6z"/>
<path class="st1" d="M110.1,24.8c-2.1,0-3.7-0.6-4.9-1.9c-1.2-1.3-1.8-2.9-1.8-4.7c0-1.9,0.6-3.4,1.8-4.7s2.8-2,4.9-2
	s3.7,0.6,4.8,1.9c1.2,1.3,1.8,2.8,1.8,4.7c0,1.9-0.6,3.5-1.8,4.8C113.8,24.2,112.2,24.8,110.1,24.8z M107.2,21.3
	c0.6,0.9,1.6,1.3,2.8,1.3s2.2-0.4,2.8-1.3c0.6-0.8,1-1.9,1-3.2s-0.3-2.4-0.9-3.2c-0.6-0.8-1.5-1.3-2.7-1.3c-1.2,0-2.2,0.4-2.8,1.3
	c-0.6,0.8-1,1.9-1,3.1C106.3,19.4,106.6,20.5,107.2,21.3z"/>
<path class="st1" d="M119.1,24.6V11.7h2.7v5.6l4.4-5.6h3l-4.7,6l4.9,6.9h-3.2l-4.4-6.2v6.2H119.1z"/>
<path class="st2" d="M17.9,18c0.4-0.4,0.9-0.6,1.5-0.6c0.5,0,1,0.2,1.5,0.6c0.4,0.5,0.6,1,0.6,1.6c0,0.6-0.2,1.2-0.6,1.6
	c-0.4,0.4-0.9,0.6-1.5,0.6c-0.6,0.1-1.1-0.2-1.5-0.6c-0.4-0.5-0.6-1-0.6-1.6C17.3,19.1,17.5,18.5,17.9,18z"/>
<path class="st2" d="M37.6,13.4l-0.1,11.3c0.1,0.5,0.1,1.1,0.1,1.6c-0.6,1.6-2.1,2.7-3.9,2.7H16.1c-2.3,0-4.1-1.8-4.1-4.1L11.9,8.3
	V7.9c0-0.1,0-0.3,0.1-0.4c0.3-1.4,1.5-2.3,3-2.3h1.9c0.6,0,1,0.5,1,1s-0.5,1-1,1h-1.9c-0.6,0-1,0.5-1,1c0.1,0.5,0.5,1,1,1h1.5l9.7-6
	c0.5-0.3,1.1-0.1,1.4,0.4l1.2,2L31.2,4c0.5-0.3,1.1-0.1,1.4,0.3L36,10C37,10.8,37.6,12,37.6,13.4z M31.1,15.7l-2.2,3.1h-1.3v-3.2
	h-2.3v8.2h2.3v-3.1h1.2l2.1,3.1h2.8l-3-4.2l2.8-3.9H31.1z M23.2,21.9c0.4-0.7,0.6-1.4,0.6-2.2c0-0.8-0.2-1.6-0.6-2.2
	c-0.4-0.7-0.9-1.2-1.5-1.5c-0.7-0.3-1.5-0.5-2.3-0.5c-0.8,0-1.5,0.1-2.3,0.5c-0.6,0.3-1.2,0.8-1.5,1.5C15.2,18.2,15,19,15,19.7
	c0,0.8,0.2,1.5,0.6,2.2c0.3,0.7,0.9,1.2,1.5,1.5c0.7,0.3,1.5,0.5,2.3,0.5c0.8,0,1.5-0.1,2.3-0.5C22.3,23.1,22.8,22.5,23.2,21.9z
	 M33.1,9.3l-1.8-3l-1.7,1.1l1.1,1.9H33.1z M27.3,7.4l-1.1-1.8l-6,3.7h8.2l-1-1.6c0,0,0,0,0-0.1c0,0,0,0,0-0.1
	C27.4,7.5,27.3,7.5,27.3,7.4z"/>
</svg>
