<svg width="146" height="63" viewBox="0 0 146 63" fill="none" xmlns="http://www.w3.org/2000/svg">
<path d="M97.5008 0L99 0.632453L72.5016 63L71 62.3675L97.5008 0Z" fill="url(#paint0_linear)"/>
<path d="M14.7705 37.7676L11.2549 41.625V51H2.68555V15.4531H11.2549V31.127L14.2334 26.6104L21.8994 15.4531H32.4951L20.4834 31.1758L32.4951 51H22.3389L14.7705 37.7676ZM69.0488 15.4531V38.7197C69.0488 41.3564 68.4873 43.6432 67.3643 45.5801C66.2412 47.5007 64.6299 48.9655 62.5303 49.9746C60.4307 50.9837 57.9486 51.4883 55.084 51.4883C50.7546 51.4883 47.3447 50.3652 44.8545 48.1191C42.3643 45.873 41.0947 42.7969 41.0459 38.8906V15.4531H49.6641V39.0615C49.7617 42.9515 51.5684 44.8965 55.084 44.8965C56.8581 44.8965 58.2008 44.4082 59.1123 43.4316C60.0238 42.4551 60.4795 40.8682 60.4795 38.6709V15.4531H69.0488Z" fill="url(#paint1_linear)"/>
<path d="M103.53 36H101.1L102.57 15.78H105.66L108.33 23.16L111.57 32.58C112.73 29.3 113.87 26.16 114.99 23.16L117.78 15.78H120.87L122.64 36H120.21L119.52 28.02L118.8 19.05C117.74 22.01 116.65 25 115.53 28.02L112.71 35.55H110.4L107.73 28.02L104.67 19.23C104.67 20.01 104.48 22.94 104.1 28.02L103.53 36ZM144.313 25.8C144.313 28.98 143.493 31.52 141.853 33.42C140.233 35.3 138.033 36.24 135.253 36.24C132.513 36.24 130.313 35.29 128.653 33.39C126.993 31.49 126.163 28.96 126.163 25.8C126.163 22.62 126.973 20.09 128.593 18.21C130.233 16.33 132.443 15.39 135.223 15.39C138.063 15.39 140.283 16.33 141.883 18.21C143.503 20.07 144.313 22.6 144.313 25.8ZM128.713 25.8C128.713 28.3 129.303 30.28 130.483 31.74C131.683 33.2 133.273 33.93 135.253 33.93C137.313 33.93 138.903 33.21 140.023 31.77C141.163 30.33 141.733 28.34 141.733 25.8C141.733 23.26 141.163 21.27 140.023 19.83C138.883 18.39 137.283 17.67 135.223 17.67C133.183 17.67 131.583 18.4 130.423 19.86C129.283 21.3 128.713 23.28 128.713 25.8Z" fill="black"/>
<defs>
<linearGradient id="paint0_linear" x1="85.0012" y1="63.0005" x2="85.0012" y2="-0.000240329" gradientUnits="userSpaceOnUse">
<stop stop-color="#57C533"/>
<stop offset="1" stop-color="#25BB51"/>
</linearGradient>
<linearGradient id="paint1_linear" x1="36.0024" y1="63.0044" x2="36.0024" y2="4.00551" gradientUnits="userSpaceOnUse">
<stop stop-color="#57C533"/>
<stop offset="0.708333" stop-color="#34BE48"/>
<stop offset="1" stop-color="#25BB51"/>
</linearGradient>
</defs>
</svg>
