<?xml version="1.0" encoding="utf-8"?>
<!-- Generator: Adobe Illustrator 21.0.0, SVG Export Plug-In . SVG Version: 6.00 Build 0)  -->
<svg version="1.1" id="Слой_1" xmlns="http://www.w3.org/2000/svg" xmlns:xlink="http://www.w3.org/1999/xlink" x="0px" y="0px"
	 viewBox="0 0 120 120" style="enable-background:new 0 0 120 120;" xml:space="preserve">
<style type="text/css">
	.st0{fill:#FFFFFF;}
</style>
<path class="st0" d="M55.4,88.6c-0.2,3.1,1.7,5,4.6,5.8c3.1,0.7,6.2,0.7,9.4,0.2c4.6-0.7,9.1-1.7,13.4-2.6c2.6-0.7,5.3-1.4,7.9-2.4
	c1.9-0.7,3.6-1.7,5.5-2.2c0.7-0.2,1.7,0,2.6,0.2c1.4,0.2,1.4,1.2,1.9,2.4c0.7,1.2-0.2,1.9-0.2,2.6c-0.5,1.9-1.9,2.9-3.1,3.8
	c-0.5,0.5-0.7,1-1.2,1.4c-1,0.7-2.4,1.4-3.4,2.2c-1.2,1.2-2.9,1.9-4.3,2.9s-3.4,1.7-5.3,2.2c-2.6,0.7-5.5,1.2-8.2,1.9
	c-3.8,1-7.7,0.5-11.3,0.5c-3.4-0.2-6.7-1-10.1-1.7c-3.6-0.7-7.2-1.4-10.8-2.4c-1.7-0.5-3.4-0.7-5-1.2c-1.4-0.5-2.4,0.2-3.4,1
	c-0.5,0.5-1,1-1.4,1.4c-0.2,0.2-1,0.5-1.2,0.5c-0.2-0.2-0.5-0.7-0.5-1.2c0-1.2,0.2-2.4,0.2-3.6c0-4.8-0.2-9.4-0.2-14.2
	c0-2.4,0-4.6,0-7c0-0.5,0.5-1,1-1.2c3.1-0.5,6-1,9.1-1.4c1.9-0.2,3.8-0.5,5.8-0.7c3.8-0.2,7.4,0.7,11,1.7c5.3,1.4,10.3,3.1,15.4,4.8
	c1,0.2,1.9,0.5,2.6,1c1.9,1.4,1.2,4.6-0.7,5.5C74.4,89.5,73,90,71.8,90c-2.4,0.2-5,0.2-7.4-0.2c-2.4-0.2-4.8-1-7.4-1.4
	C56.2,88.3,55.7,88.6,55.4,88.6z"/>
<path class="st0" d="M75.1,14.2c-16.8,0-30.2,13.7-30.2,30.2s13.7,30.2,30.2,30.2s30.2-13.7,30.2-30.2S91.7,14.2,75.1,14.2z
	 M75.1,69.6c-13.9,0-25.2-11.3-25.2-25.2s11.3-25.2,25.2-25.2s25.2,11.3,25.2,25.2C100.1,58.3,88.8,69.6,75.1,69.6z"/>
<path class="st0" d="M75.1,22.1c-12.2,0-22.3,10.1-22.3,22.3s10.1,22.3,22.3,22.3s22.3-10.1,22.3-22.3S87.4,22.1,75.1,22.1z
	 M84.2,46.3c0.7,0,1.4,0.7,1.4,1.4s-0.7,1.4-1.4,1.4H72c-0.7,1.2-1.2,2.6-0.5,4.6c1.2,3.6,6.2,2.9,9.1,1.7c1.7-1,3.4,1.7,1.4,2.6
	c-3.6,1.7-8.9,2.4-11.8-0.7c-2.2-2.2-2.4-5.3-1.4-8.2h-3.1c-0.7,0-1.4-0.7-1.4-1.4s0.7-1.4,1.4-1.4h4.8c0.2-0.2,0.5-0.5,0.7-0.7
	c0.7-0.5,1.4-1.2,1.9-1.7h-7.7c-0.7,0-1.4-0.7-1.4-1.4s0.7-1.7,1.7-1.7h11.5c1.2-1.2,2.4-2.9,2.2-4.6c-0.2-1.7-1.4-3.1-2.9-3.6
	c-2.2-0.7-4.6-0.2-6.5,0.7c-1.7,1-3.4-1.7-1.4-2.6c4.1-2.2,10.1-2.4,12.7,1.9c1.2,1.7,1.4,4.1,0.7,6c-0.2,0.7-0.7,1.4-1,2.2h3.1
	c0.7,0,1.4,0.7,1.4,1.4s-0.7,1.4-1.4,1.4h-5.8c-0.2,0.2-0.5,0.2-0.5,0.5c-0.7,0.7-1.7,1.2-2.6,1.9h8.9v0.3H84.2z"/>
<path class="st0" d="M25.4,105.4h-4.3V78.2h4.3c1.9,0,3.6,1.7,3.6,3.6V102C29,103.7,27.4,105.4,25.4,105.4z"/>
<path class="st0" d="M15.4,105.4h-3.8V78h3.8c1.9,0,3.6,1.7,3.6,3.6v20.2C19,103.7,17.3,105.4,15.4,105.4z"/>
</svg>
