<?xml version="1.0" encoding="UTF-8"?>
<svg width="62px" height="39px" viewBox="0 0 62 39" version="1.1" xmlns="http://www.w3.org/2000/svg" xmlns:xlink="http://www.w3.org/1999/xlink">
    <!-- Generator: Sketch 52.2 (67145) - http://www.bohemiancoding.com/sketch -->
    <title>mdpi/Mastercard-logo</title>
    <desc>Created with Sketch.</desc>
    <g id="Page-1" stroke="none" stroke-width="1" fill="none" fill-rule="evenodd">
        <g id="Turbocash_WEB_2" transform="translate(-1403.000000, -2571.000000)">
            <g id="Footer" transform="translate(-1.000000, 2440.000000)">
                <g id="Mastercard-logo" transform="translate(1403.000000, 130.000000)">
                    <g id="Group" transform="translate(60.949757, 31.633347) scale(-1, 1) rotate(-180.000000) translate(-60.949757, -31.633347) translate(59.747400, 30.633347)" fill="#F79410" fill-rule="nonzero">
                        <path d="M2.81159069,-1.11022302e-16 L2.81159069,1.22 L2.57159069,1.22 L2.29385484,0.382 L2.01762842,1.22 L1.77611899,1.22 L1.77611899,-1.11022302e-16 L1.94668503,-1.11022302e-16 L1.94668503,0.92 L2.20630767,0.126 L2.38291144,0.126 L2.64253408,0.922 L2.64253408,-1.11022302e-16 L2.81159069,-1.11022302e-16 Z M1.28857182,1.11022302e-16 L1.28857182,1.012 L1.59649635,1.012 L1.59649635,1.218 L0.811590688,1.218 L0.811590688,1.012 L1.11951522,1.012 L1.11951522,1.11022302e-16 L1.28857182,1.11022302e-16 Z" id="Shape"></path>
                    </g>
                    <polygon id="Path" fill="#FF5F00" points="40.4135066 34.9906868 23.8671563 34.9906868 23.8671563 5.25400397 40.4135066 5.25400397"></polygon>
                    <g id="Group" transform="translate(17.111836, 20.119941) scale(-1, 1) rotate(-180.000000) translate(-17.111836, -20.119941) translate(0.880022, 0.882235)" fill="#EB001B">
                        <path d="M24.0471315,19.2377052 C24.0471315,25.2699281 26.8714671,30.6432597 31.2696875,34.1060466 C28.0533836,36.6382096 23.9942278,38.1495718 19.5827815,38.1495718 C9.13911233,38.1495718 0.673319682,29.6825768 0.673319682,19.2377052 C0.673319682,8.79283364 9.13911233,0.325838632 19.5827815,0.325838632 C23.9942278,0.325838632 28.0533836,1.83720085 31.2696875,4.3693638 C26.8714671,7.83215073 24.0471315,13.2054823 24.0471315,19.2377052" id="Path"></path>
                    </g>
                    <g id="Group" transform="translate(47.098609, 20.119941) scale(-1, 1) rotate(-180.000000) translate(-47.098609, -20.119941) translate(31.467974, 0.882235)" fill="#F79E1B">
                        <path d="M31.261271,19.2377052 C31.261271,8.79283364 22.7954783,0.325838632 12.3518091,0.325838632 C7.94036282,0.325838632 3.88120703,1.83720085 0.66370083,4.3693638 C5.06312354,7.83215073 7.88745914,13.2054823 7.88745914,19.2377052 C7.88745914,25.2699281 5.06312354,30.6432597 0.66370083,34.1060466 C3.88120703,36.6382096 7.94036282,38.1495718 12.3518091,38.1495718 C22.7954783,38.1495718 31.261271,29.6825768 31.261271,19.2377052" id="Path"></path>
                    </g>
                </g>
            </g>
        </g>
    </g>
</svg>