<svg width="257" height="45" viewBox="0 0 257 45" fill="none" xmlns="http://www.w3.org/2000/svg" id="logo-svg">
<g class="white">
    <path fill-rule="evenodd" clip-rule="evenodd" d="M24.7329 7.86635L21.9006 0H0L11.6779 32.4582H11.7192H33.5785H33.6198L42.447 7.87112H24.7329V7.86635ZM6.26125 4.51551H18.8894L20.3215 8.49642L14.0143 26.0668L6.26125 4.51551ZM17.9759 27.9428L22.6443 14.9451L27.3218 27.9428H17.9759ZM31.2787 26.0668L26.3578 12.3819H36.195L31.2787 26.0668ZM107.19 11.2506C105.413 10.2053 103.517 9.68021 101.502 9.68021C98.7114 9.68021 96.2415 10.6874 94.0979 12.7017C91.6466 15.0167 90.4255 17.9093 90.4255 21.3843C90.4255 24.6254 91.5089 27.3795 93.6756 29.6468C95.8422 31.9141 98.4584 33.0453 101.525 33.0453C103.609 33.0453 105.514 32.5298 107.244 31.5036C108.975 30.4774 110.339 29.0501 111.339 27.222C112.34 25.3985 112.84 23.4368 112.84 21.3413C112.84 19.2554 112.345 17.3175 111.348 15.5179C110.353 13.7232 108.966 12.3008 107.19 11.2506ZM105.762 26.043C104.646 27.2553 103.251 27.8616 101.571 27.8616C99.8908 27.8616 98.5043 27.2601 97.4075 26.0621C96.3104 24.864 95.7641 23.2983 95.7641 21.3604C95.7641 19.4797 96.3196 17.938 97.4259 16.7351C98.5365 15.5275 99.923 14.926 101.589 14.926C103.297 14.926 104.697 15.5227 105.79 16.7112C106.887 17.9045 107.433 19.4511 107.433 21.3604C107.438 23.2698 106.877 24.8305 105.762 26.043ZM142.283 13.0406C144.385 10.8019 147.025 9.68021 150.192 9.68021C153.557 9.68021 156.293 10.7972 158.4 13.0406C160.507 15.2841 161.562 18.2434 161.562 21.9189L161.544 22.9785H144.312C144.565 24.5633 145.23 25.8186 146.309 26.7494C147.388 27.6802 148.769 28.148 150.445 28.148C152.451 28.148 154.172 27.4176 155.614 25.9618L160.135 28.1671C159.005 29.8329 157.656 31.0597 156.086 31.8568C154.512 32.6539 152.648 33.0501 150.486 33.0501C147.131 33.0501 144.399 31.9523 142.292 29.7518C140.185 27.5561 139.129 24.7972 139.129 21.4893C139.129 18.0955 140.181 15.2793 142.283 13.0406ZM146.52 15.7041C145.809 16.253 145.152 17.2124 144.55 18.5871H156.182C155.829 17.346 155.127 16.3389 154.085 15.5609C153.043 14.7829 151.83 14.3962 150.454 14.3962C148.962 14.3962 147.649 14.8306 146.52 15.7041ZM203.271 10.2482L197.881 23.3651L192.479 10.2482H187.016L196.132 32.4773H199.608L208.705 10.2482H203.271ZM211.86 13.0406C213.961 10.8019 216.601 9.68021 219.768 9.68021C223.133 9.68021 225.869 10.7972 227.981 13.0406C230.087 15.2841 231.144 18.2434 231.144 21.9189L231.125 22.9785H213.893C214.145 24.5633 214.81 25.8186 215.889 26.7494C216.968 27.6802 218.349 28.148 220.025 28.148C222.031 28.148 223.753 27.4176 225.194 25.9618L229.711 28.1671C228.582 29.8329 227.232 31.0597 225.662 31.8568C224.088 32.6539 222.224 33.0501 220.062 33.0501C216.707 33.0501 213.975 31.9523 211.868 29.7518C209.762 27.5561 208.705 24.7972 208.705 21.4893C208.705 18.0955 209.757 15.2793 211.86 13.0406ZM216.096 15.7041C215.385 16.253 214.728 17.2124 214.126 18.5871H225.759C225.405 17.346 224.703 16.3389 223.661 15.5609C222.619 14.7829 221.407 14.3962 220.03 14.3962C218.538 14.3962 217.225 14.8306 216.096 15.7041ZM254.504 15.5227C253.507 13.7232 252.121 12.3008 250.349 11.2506C248.573 10.2005 246.676 9.68021 244.662 9.68021C241.871 9.68021 239.401 10.6874 237.253 12.7017C234.802 15.0167 233.58 17.9141 233.58 21.3843C233.58 24.6254 234.664 27.3795 236.83 29.6468C238.997 31.9141 241.614 33.0453 244.68 33.0453C246.764 33.0453 248.669 32.5298 250.4 31.5036C252.131 30.4774 253.494 29.0501 254.494 27.222C255.495 25.3985 255.995 23.4368 255.995 21.3413C256 19.2601 255.5 17.3175 254.504 15.5227ZM248.922 26.043C247.806 27.2553 246.411 27.8616 244.731 27.8616C243.05 27.8616 241.664 27.2601 240.568 26.0621C239.47 24.864 238.924 23.2983 238.924 21.3604C238.924 19.4797 239.479 17.938 240.585 16.7351C241.696 15.5275 243.083 14.926 244.749 14.926C246.457 14.926 247.857 15.5227 248.949 16.7112C250.047 17.9045 250.593 19.4511 250.593 21.3604C250.598 23.2698 250.037 24.8305 248.922 26.043ZM115.31 20.8401C115.31 14.7112 120.107 9.72318 126.001 9.72318C131.895 9.72318 136.692 14.7112 136.692 20.8401V32.463H131.468V20.8401C131.468 17.7041 129.017 15.1551 126.001 15.1551C122.985 15.1551 120.534 17.7041 120.534 20.8401V32.463H115.31V20.8401ZM77.2926 9.72318C74.0426 9.72318 71.1277 11.2411 69.1631 13.6325C67.1983 11.2411 64.288 9.72318 61.0335 9.72318C55.1395 9.72318 50.3426 14.7112 50.3426 20.8401V32.463H55.5664V20.8401C55.5664 17.7041 58.0176 15.1551 61.0335 15.1551C64.0493 15.1551 66.5006 17.7041 66.5006 20.8401V32.463H66.6016H71.729H71.8301V20.8401C71.8301 17.7041 74.2813 15.1551 77.2971 15.1551C80.3131 15.1551 82.7643 17.7041 82.7643 20.8401V32.463H87.9882V20.8401C87.9836 14.7112 83.1866 9.72318 77.2926 9.72318ZM180.117 21.8902V14.6014V10.2672H185.34V14.6014V21.8902V33.0119H185.336C185.272 39.0835 180.502 44.0047 174.65 44.0047V38.5679C177.665 38.5632 180.117 36.0191 180.117 32.883V31.4415C178.515 32.4343 176.647 33.0072 174.65 33.0072C168.756 33.0072 163.958 28.0191 163.958 21.8902V10.2672H169.183V21.8902C169.183 25.0263 171.633 27.5751 174.65 27.5751C177.665 27.5751 180.117 25.0263 180.117 21.8902Z" fill="white"/>
</g>
<g class="colorful">
    <path fill-rule="evenodd" clip-rule="evenodd" d="M97.6619 9.54825C99.7286 9.54825 101.672 10.0677 103.491 11.1021C105.311 12.1411 106.732 13.5478 107.75 15.3223C108.772 17.0967 109.28 19.0184 109.28 21.0779C109.28 23.1511 108.767 25.0911 107.74 26.8933C106.714 28.6953 105.316 30.1067 103.542 31.1226C101.769 32.1386 99.8156 32.6489 97.6803 32.6489C94.5408 32.6489 91.8597 31.5272 89.6369 29.2884C87.414 27.0449 86.3049 24.3235 86.3049 21.1192C86.3049 17.6852 87.5607 14.8258 90.0723 12.5364C92.2722 10.5458 94.8021 9.54825 97.6619 9.54825ZM97.7304 27.5231C99.4541 27.5231 100.888 26.9255 102.03 25.7255C103.176 24.5257 103.744 22.9857 103.748 21.0962C103.748 19.2115 103.185 17.676 102.062 16.4991C100.939 15.3223 99.5049 14.7338 97.7539 14.7338C96.0441 14.7338 94.6234 15.3315 93.4867 16.5221C92.3501 17.7127 91.7818 19.239 91.7818 21.0962C91.7818 23.0087 92.341 24.5579 93.4638 25.744C94.5866 26.9301 96.0074 27.5231 97.7304 27.5231ZM139.46 12.872C141.614 10.6561 144.314 9.54825 147.563 9.54825C151.01 9.54825 153.819 10.6561 155.977 12.872C158.137 15.0878 159.218 18.0115 159.218 21.6479L159.2 22.6961H141.541C141.798 24.2591 142.476 25.5049 143.585 26.4243C144.694 27.3483 146.106 27.8081 147.824 27.8081C149.882 27.8081 151.647 27.0863 153.122 25.6474L157.752 27.8265C156.597 29.4677 155.212 30.6813 153.604 31.472C151.995 32.2581 150.08 32.6535 147.865 32.6535C144.428 32.6535 141.632 31.5685 139.469 29.3941C137.311 27.2197 136.229 24.4981 136.229 21.225C136.229 17.8691 137.306 15.0878 139.46 12.872ZM143.801 15.5108C143.077 16.0486 142.402 16.9956 141.784 18.3564V18.361H153.705C153.342 17.1335 152.623 16.136 151.555 15.3682C150.487 14.6005 149.245 14.2189 147.833 14.2189C146.303 14.2189 144.956 14.6465 143.801 15.5108ZM201.961 10.1137L196.438 23.0823L190.906 10.1137H185.305L194.646 32.0881H198.211L207.533 10.1137H201.961ZM210.764 12.872C212.919 10.6561 215.618 9.54825 218.867 9.54825C222.318 9.54825 225.124 10.6561 227.282 12.872C229.44 15.0878 230.522 18.0115 230.522 21.6479L230.504 22.6961H212.845C213.101 24.2591 213.781 25.5049 214.89 26.4243C215.999 27.3483 217.41 27.8081 219.129 27.8081C221.187 27.8081 222.951 27.0863 224.427 25.6474L229.056 27.8265C227.901 29.4677 226.517 30.6813 224.908 31.472C223.299 32.2581 221.383 32.6535 219.17 32.6535C215.733 32.6535 212.937 31.5685 210.774 29.3941C208.615 27.2197 207.533 24.4981 207.533 21.225C207.533 17.8691 208.611 15.0878 210.764 12.872ZM215.109 15.5108C214.385 16.0486 213.711 16.9956 213.093 18.3564V18.361H225.013C224.652 17.1335 223.932 16.136 222.864 15.3682C221.796 14.6005 220.554 14.2189 219.143 14.2189C217.612 14.2189 216.264 14.6465 215.109 15.5108ZM254.474 15.3269C253.452 13.5478 252.036 12.1411 250.217 11.1021C248.396 10.0677 246.454 9.54825 244.386 9.54825C241.526 9.54825 238.997 10.5458 236.797 12.5364C234.285 14.8258 233.029 17.6852 233.029 21.1192C233.029 24.3235 234.138 27.0449 236.361 29.2884C238.584 31.5272 241.265 32.6489 244.405 32.6489C246.541 32.6489 248.493 32.1386 250.266 31.1226C252.04 30.1067 253.438 28.6953 254.465 26.8933C255.491 25.0911 256.005 23.1511 256.005 21.0779C256 19.023 255.491 17.1013 254.474 15.3269ZM248.75 25.7255C247.609 26.9255 246.173 27.5231 244.451 27.5231C242.727 27.5231 241.306 26.9301 240.184 25.744C239.061 24.5579 238.501 23.0087 238.501 21.0962C238.501 19.239 239.07 17.7127 240.206 16.5221C241.344 15.3315 242.764 14.7338 244.473 14.7338C246.224 14.7338 247.658 15.3223 248.781 16.4991C249.905 17.676 250.468 19.2115 250.468 21.0916C250.464 22.9857 249.895 24.5257 248.75 25.7255ZM111.81 20.5859C111.81 14.5269 116.728 9.59421 122.769 9.59421C128.814 9.59421 133.727 14.5223 133.727 20.5859V32.0788H128.369V20.5859C128.369 17.4875 125.857 14.9682 122.769 14.9682C119.679 14.9682 117.168 17.4875 117.168 20.5859V32.0788H111.81V20.5859ZM72.8534 9.59421C69.5215 9.59421 66.5333 11.0975 64.5213 13.4558C62.5093 11.0929 59.5211 9.59421 56.1892 9.59421C50.1486 9.59421 45.2309 14.5269 45.2309 20.5859V32.0788H50.5886V20.5859C50.5886 17.4875 53.1002 14.9682 56.1892 14.9682C59.2782 14.9682 61.7898 17.4875 61.7898 20.5859V32.0788H61.8906H67.1428H67.2437V20.5859C67.2437 17.4875 69.7552 14.9682 72.8443 14.9682C75.9333 14.9682 78.4448 17.4875 78.4448 20.5859V32.0788H83.8026V20.5859C83.8072 14.5223 78.894 9.59421 72.8534 9.59421ZM178.234 21.6203V14.4121V10.1275H183.591V14.4121V21.6203V32.6121H183.586C183.518 38.616 178.632 43.4797 172.633 43.4797V38.1057C175.722 38.1057 178.234 35.5864 178.234 32.4879V31.0628C176.593 32.0467 174.677 32.6121 172.633 32.6121C166.588 32.6121 161.675 27.6793 161.675 21.6203V10.1275H167.032V21.6203C167.032 24.7188 169.543 27.2381 172.633 27.2381C175.722 27.2381 178.234 24.7188 178.234 21.6203Z" fill="#3DAE2B"/>
    <path d="M20.6791 8.55532H38.1409L29.3824 31.7984H11.9207L20.6791 8.55532Z" fill="#915FFF"/>
    <path d="M17.3975 0H0L11.9483 31.7984H29.3458L17.3975 0Z" fill="#3DAE2B"/>
    <path d="M11.9345 31.7615L11.9482 31.7983H29.3458L20.647 8.64257L11.9345 31.7615Z" fill="#2C608A"/>
</g>
</svg>
