<svg id="Layer_1" data-name="Layer 1" xmlns="http://www.w3.org/2000/svg" viewBox="0 0 514.45 148.06"><defs><style>.cls-1{fill:#ab3b73;}.cls-2{fill:#fdcf13;}</style></defs><title> Логотип Pozichka svg</title><path id="path908" class="cls-1" d="M47.13,65.53c5.74-1.09,17.62-32.84,24.76-41.65,11.35-4.31,46.54-5.73,47.35-11.55-.8-4.58-7-7.63-17.53-9.82C94.83,1.44,68.56-3.41,58.58,4.19c-9.34,8.26-15,29.86-16.26,41.87C40.54,55.15,42.62,65.48,47.13,65.53Z"/><path id="path908-2" data-name="path908" class="cls-2" d="M72.58,40c3.6,4.6,37.26.62,48.36,2.93,9,8.12,26.42,38.74,32,36.79,3.71-2.81,3.55-9.76.7-20.09-2.19-6.6-9.92-32.18-21.24-37.56-11.62-4.52-33.42.32-44.67,4.73C78.79,29.38,70.56,36,72.58,40Z"/><path id="path908-3" data-name="path908" class="cls-2" d="M61.6,98.13c1.3-5.69-23-29.29-28.26-39.36.6-12.13,13.37-44.94,8.36-48-4.52-1.1-9.81,3.41-16,12.14C22,28.76,7,50.9,10,63.08,13.8,74.94,31.31,88.8,41.83,94.74,49.45,100,59.74,102.24,61.6,98.13Z"/><path id="path908-4" data-name="path908" class="cls-2" d="M110.59,82.77c-5.75,1-17.89,32.7-25.1,41.45-11.39,4.22-46.59,5.35-47.44,11.17.77,4.59,7,7.69,17.45,10,6.86,1.13,33.1,6.19,43.13-1.33,9.4-8.18,15.27-29.73,16.6-41.74C117.1,93.2,115.1,82.86,110.59,82.77Z"/><path id="path908-5" data-name="path908" class="cls-1" d="M85.41,104.92c-3.94-4.31-37.2,2.24-48.44.78C27.33,98.3,7.66,69.1,2.28,71.46c-3.48,3.09-2.8,10,.84,20.08C5.81,98,15.47,122.87,27.18,127.36c11.93,3.61,33.3-2.88,44.18-8.13C80,116,87.72,108.78,85.41,104.92Z"/><path id="path908-6" data-name="path908" class="cls-1" d="M101,50.39c-1.75,5.57,20.61,31,25,41.5-1.57,12-16.94,43.72-12.19,47.19,4.42,1.46,10.06-2.61,16.94-10.81,4.19-5.55,20.88-26.41,18.9-38.79-2.87-12.13-19.21-27.35-29.22-34.12C113.23,49.49,103.15,46.44,101,50.39Z"/><path class="cls-1" d="M178.73,59.12q4-.6,8.18-.91t8.09-.3a41.06,41.06,0,0,1,7.79.74,19.29,19.29,0,0,1,6.84,2.68,14.45,14.45,0,0,1,4.89,5.37,18.5,18.5,0,0,1,1.86,8.87,18.46,18.46,0,0,1-1.69,8.31,15.16,15.16,0,0,1-4.46,5.45,17.8,17.8,0,0,1-6.28,3,28.37,28.37,0,0,1-7.14.91q-1.47,0-2.51-.09A7.39,7.39,0,0,1,193,93v10.65a35.42,35.42,0,0,1-4,.56q-1.78.13-3.16.13t-3.16-.13a35.94,35.94,0,0,1-3.94-.56ZM193,82.06a8.3,8.3,0,0,0,1.08.13c.43,0,.79,0,1.08,0a7.87,7.87,0,0,0,5-1.52q1.95-1.51,1.95-5.15a6,6,0,0,0-1.95-4.8,7.08,7.08,0,0,0-4.81-1.69h-1a11,11,0,0,0-1.34.09Z"/><path class="cls-1" d="M221.23,81.54a30.94,30.94,0,0,1,1.43-9.65,20.52,20.52,0,0,1,4.24-7.49,18.72,18.72,0,0,1,7-4.8,25.39,25.39,0,0,1,9.61-1.69,25.65,25.65,0,0,1,9.7,1.69,18.73,18.73,0,0,1,7,4.8,20.54,20.54,0,0,1,4.24,7.49,30.94,30.94,0,0,1,1.43,9.65A29.84,29.84,0,0,1,264.39,91a20.21,20.21,0,0,1-4.24,7.36,18.52,18.52,0,0,1-7,4.72,26.27,26.27,0,0,1-9.7,1.65,26,26,0,0,1-9.61-1.65,18.51,18.51,0,0,1-7-4.72A20.19,20.19,0,0,1,222.66,91,29.84,29.84,0,0,1,221.23,81.54Zm29.78,0q0-5.54-1.86-8.48a6.25,6.25,0,0,0-5.67-2.94,6.15,6.15,0,0,0-5.63,2.94Q236,76,236,81.54t1.82,8.4a6.14,6.14,0,0,0,5.63,2.94,6.25,6.25,0,0,0,5.67-2.94Q251,87,251,81.54Z"/><path class="cls-1" d="M288.59,91.85h16.54a37,37,0,0,1,.61,6.06q0,1.3-.13,2.64t-.48,3.16H268.76l-1.39-2.6,18.09-30.3h-14.8a25.7,25.7,0,0,1-.56-3.33Q270,66,270,64.75t.13-2.64a23.68,23.68,0,0,1,.56-3.16H305.9l.87,2.77Z"/><path class="cls-1" d="M327.89,103.62q-2.25.35-4.07.52t-3.29.17q-1.47,0-3.29-.17t-4-.52V58.95a29.33,29.33,0,0,1,3.77-.61q1.86-.17,3.59-.17t3.55.17a26.58,26.58,0,0,1,3.72.61Z"/><path class="cls-1" d="M335.42,81.37a29.42,29.42,0,0,1,1.47-9.52,20.33,20.33,0,0,1,4.33-7.4,19.87,19.87,0,0,1,7-4.8,24.58,24.58,0,0,1,9.52-1.73q1.82,0,3.46.09a30.3,30.3,0,0,1,3.25.35,24.56,24.56,0,0,1,3.29.78q1.69.52,3.77,1.3a20,20,0,0,1-.52,5.84,23.91,23.91,0,0,1-2.17,5.67q-1.47-.52-2.64-.82T364,70.63a17.17,17.17,0,0,0-2-.22q-1,0-2.12,0A9.87,9.87,0,0,0,353,72.84q-2.73,2.47-2.73,8.53a14.81,14.81,0,0,0,.82,5.32A8.54,8.54,0,0,0,353.21,90a7.86,7.86,0,0,0,3.12,1.73,13.32,13.32,0,0,0,3.77.52,19.46,19.46,0,0,0,4.37-.43,34.61,34.61,0,0,0,4.37-1.39,21.13,21.13,0,0,1,2.34,5.24,23.22,23.22,0,0,1,.87,6.62,31.6,31.6,0,0,1-7.27,2,50.49,50.49,0,0,1-6.58.43,27,27,0,0,1-9.78-1.65,19.18,19.18,0,0,1-7.14-4.72A20.05,20.05,0,0,1,336.89,91,29.6,29.6,0,0,1,335.42,81.37Z"/><path class="cls-1" d="M405.8,87.17H393v16.45q-2.25.35-4.07.52t-3.29.17q-1.47,0-3.29-.17t-4-.52V58.95a29.35,29.35,0,0,1,3.77-.61q1.86-.17,3.59-.17t3.55.17a26.56,26.56,0,0,1,3.72.61V74.18H405.8V58.95a29.37,29.37,0,0,1,3.77-.61q1.86-.17,3.59-.17t3.55.17a26.56,26.56,0,0,1,3.72.61v44.67q-2.25.35-4.07.52t-3.29.17q-1.47,0-3.29-.17t-4-.52Z"/><path class="cls-1" d="M430.13,58.95a29.35,29.35,0,0,1,3.77-.61q1.86-.17,3.59-.17t3.55.17a26.56,26.56,0,0,1,3.72.61v44.58a35.18,35.18,0,0,1-4.07.56q-1.82.13-3.2.13t-3.29-.13a35.13,35.13,0,0,1-4.07-.56Zm26.23,0a28,28,0,0,1,3.81-.52q2.25-.17,4-.17,2.25,0,4.54.17a23.08,23.08,0,0,1,3.68.52L461.64,79.73l11.95,23.81a28.39,28.39,0,0,1-3.9.52q-2.33.17-4.07.17-2.25,0-4.46-.17a20.7,20.7,0,0,1-3.51-.52l-11.51-23.2Z"/><path class="cls-1" d="M476.19,89.07a12.54,12.54,0,0,1,1.82-7,13.69,13.69,0,0,1,4.67-4.42A19.93,19.93,0,0,1,489,75.35a36.61,36.61,0,0,1,6.75-.65H501a4.66,4.66,0,0,0-.87-2.6,5.18,5.18,0,0,0-2-1.6,9.73,9.73,0,0,0-2.68-.78,20.9,20.9,0,0,0-3-.22,29.16,29.16,0,0,0-4.85.48,35,35,0,0,0-5.71,1.51q-.78-1.47-1.34-2.68a13.07,13.07,0,0,1-.87-2.47,18.45,18.45,0,0,1-.43-2.6q-.13-1.34-.13-3.07a55.14,55.14,0,0,1,8.27-2.08,45,45,0,0,1,7.4-.69A28.51,28.51,0,0,1,502.94,59a16.22,16.22,0,0,1,6.19,3.33,14.76,14.76,0,0,1,3.94,5.76,22.73,22.73,0,0,1,1.39,8.35V101.8q-3.29,1-8,1.9a49.37,49.37,0,0,1-9.87,1,38.8,38.8,0,0,1-8.27-.82,18.37,18.37,0,0,1-6.45-2.64,12.54,12.54,0,0,1-4.2-4.8A16,16,0,0,1,476.19,89.07Zm20.43,4.85a20.68,20.68,0,0,0,2.25-.17A18.59,18.59,0,0,0,501,93.4V83.88H496.1a9.45,9.45,0,0,0-5.11,1.3,4.07,4.07,0,0,0-2.08,3.64,4.31,4.31,0,0,0,.78,2.73,5,5,0,0,0,1.95,1.52,8.9,8.9,0,0,0,2.51.69A19.25,19.25,0,0,0,496.62,93.92Z"/></svg>