<svg width="224" height="51" viewBox="0 0 224 51" fill="none" xmlns="http://www.w3.org/2000/svg">
<path d="M18.171 33.5956L9.92085 38.3672C4.46269 41.4911 4.97489e-05 38.905 4.97489e-05 32.6344V7.02574C-0.0236867 5.9774 0.13109 4.93265 0.457757 3.93622L10.4243 33.5956H18.171Z" fill="#F39200"/>
<path d="M25.9986 10.573H19.2817L14.3499 26.1923L6.06543 0C7.43496 0.120143 8.75649 0.563269 9.92161 1.29302L25.9986 10.573Z" fill="#4562AB"/>
<path d="M32.1081 25.5403L18.3082 33.5502L25.9977 10.5733L32.1081 14.0862C37.5662 17.2558 37.5662 22.405 32.1081 25.5289" fill="#4562AB"/>
<path d="M59.0794 10.6185H65.5789L56.8824 33.5039H50.1427L41.4348 10.6185H47.9457L53.484 26.6383L59.0794 10.6185Z" fill="#F39200"/>
<path d="M71.0355 24.499C71.8251 27.3597 73.9763 28.8015 77.4892 28.8015C78.4666 28.8623 79.4443 28.686 80.3388 28.2875C81.2334 27.889 82.0184 27.2802 82.627 26.513L87.3871 29.2592C86.2816 30.8635 84.7822 32.1565 83.0328 33.0142C81.2834 33.8718 79.3429 34.2652 77.3977 34.1567C75.7185 34.2378 74.0404 33.9752 72.4663 33.3849C70.8922 32.7947 69.4553 31.8891 68.2435 30.7239C67.1105 29.5907 66.2214 28.2377 65.631 26.7479C65.0406 25.2582 64.7615 23.6634 64.8107 22.0618C64.7722 20.4666 65.0564 18.88 65.6463 17.3974C66.2362 15.9148 67.1196 14.5667 68.2435 13.434C69.3787 12.2907 70.7387 11.3953 72.2375 10.8045C73.7363 10.2136 75.3415 9.94008 76.9514 10.0012C78.5022 9.94995 80.0462 10.2296 81.4806 10.8215C82.915 11.4134 84.2068 12.304 85.2702 13.434C87.4538 15.7581 88.6302 18.8511 88.5428 22.0389C88.5362 22.8563 88.4597 23.6717 88.314 24.4762L71.0355 24.499ZM70.944 19.922H82.627C82.3795 18.5574 81.633 17.3337 80.533 16.4892C79.4918 15.7268 78.2303 15.325 76.94 15.3449C75.5279 15.2881 74.1389 15.7161 73.0037 16.5578C71.9423 17.3967 71.2126 18.5846 70.944 19.9105V19.922Z" fill="#F39200"/>
<path d="M97.2632 14.555C97.7473 13.1659 98.7136 11.9966 99.9866 11.2595C101.27 10.5062 102.732 10.1111 104.22 10.1152V16.7176C102.524 16.4836 100.802 16.8917 99.3916 17.8619C98.6619 18.3962 98.0826 19.1099 97.7097 19.9338C97.3369 20.7578 97.1831 21.664 97.2632 22.5648V33.5155H91.3245V10.6301H97.2632V14.555Z" fill="#F39200"/>
<path d="M125.595 30.6552C123.903 32.3656 121.739 33.5329 119.38 34.0078C117.02 34.4827 114.573 34.2438 112.351 33.3216C110.128 32.3994 108.23 30.8356 106.901 28.8301C105.571 26.8245 104.869 24.4681 104.884 22.0617C104.869 20.4691 105.171 18.8895 105.774 17.4152C106.376 15.9408 107.266 14.6014 108.393 13.4753C109.519 12.3491 110.858 11.4588 112.332 10.8563C113.807 10.2539 115.386 9.95152 116.979 9.96681C118.578 9.93762 120.167 10.234 121.648 10.8379C123.129 11.4418 124.472 12.3406 125.595 13.4797C126.739 14.5925 127.642 15.9284 128.249 17.4047C128.855 18.881 129.151 20.4661 129.12 22.0617C129.153 23.6592 128.857 25.2465 128.251 26.7249C127.645 28.2033 126.741 29.5411 125.595 30.6552ZM112.562 26.6045C113.135 27.1908 113.824 27.6521 114.584 27.9593C115.344 28.2665 116.159 28.413 116.979 28.3895C117.802 28.4113 118.62 28.2642 119.384 27.9572C120.148 27.6501 120.84 27.1897 121.419 26.6045C122.015 26.0054 122.481 25.2896 122.789 24.5021C123.096 23.7145 123.237 22.8721 123.204 22.0274C123.237 21.1827 123.096 20.3402 122.789 19.5527C122.481 18.7651 122.015 18.0494 121.419 17.4503C120.84 16.865 120.148 16.4046 119.384 16.0976C118.62 15.7906 117.802 15.6434 116.979 15.6653C116.159 15.6418 115.344 15.7883 114.584 16.0955C113.824 16.4027 113.135 16.864 112.562 17.4503C111.971 18.0522 111.51 18.7689 111.207 19.5562C110.903 20.3434 110.765 21.1845 110.8 22.0274C110.766 22.8702 110.904 23.7111 111.207 24.4982C111.511 25.2854 111.972 26.0022 112.562 26.6045Z" fill="#F39200"/>
<path d="M142.634 34.1566C141.036 34.1909 139.448 33.9015 137.965 33.3059C136.482 32.7102 135.135 31.8206 134.005 30.6905C132.875 29.5605 131.985 28.2135 131.389 26.7305C130.794 25.2476 130.504 23.6594 130.539 22.0617C130.544 19.9325 131.109 17.8421 132.177 16.0002C133.245 14.1583 134.779 12.6298 136.625 11.5679C138.47 10.506 140.562 9.94816 142.692 9.95032C144.821 9.95248 146.912 10.5146 148.755 11.5802C150.534 12.5807 151.985 14.0751 152.932 15.8826L147.84 18.8577C147.399 17.8982 146.671 17.0987 145.757 16.5692C144.807 16.0146 143.723 15.7298 142.622 15.7453C141.808 15.7193 140.997 15.8625 140.24 16.1658C139.484 16.4691 138.799 16.9259 138.228 17.5075C137.647 18.1016 137.194 18.8077 136.895 19.5828C136.596 20.3579 136.458 21.1857 136.489 22.0159C136.46 22.8407 136.599 23.6628 136.898 24.432C137.197 25.2012 137.65 25.9014 138.228 26.49C138.8 27.0699 139.486 27.5256 140.242 27.8288C140.998 28.132 141.808 28.2761 142.622 28.2522C143.734 28.2689 144.831 27.9926 145.803 27.4512C146.709 26.9426 147.436 26.1675 147.886 25.2313L153.023 28.1606C152.023 29.9775 150.548 31.4884 148.755 32.5317C146.903 33.6267 144.785 34.189 142.634 34.1566Z" fill="#4562AB"/>
<path d="M172.041 10.6187H177.957V33.504H172.041V30.815C171.15 31.9224 170.01 32.8026 168.713 33.3835C167.416 33.9643 166 34.2292 164.58 34.1562C163.104 34.1615 161.643 33.852 160.295 33.2482C158.948 32.6444 157.744 31.7603 156.765 30.6548C154.585 28.3329 153.409 25.245 153.492 22.0613C153.411 18.8814 154.587 15.7977 156.765 13.4793C157.749 12.3665 158.959 11.4772 160.315 10.8713C161.671 10.2653 163.141 9.9568 164.626 9.96643C166.046 9.89579 167.463 10.1628 168.76 10.7456C170.056 11.3284 171.197 12.2104 172.087 13.3191L172.041 10.6187ZM161.136 26.7185C161.733 27.319 162.448 27.7896 163.236 28.1007C164.023 28.4118 164.867 28.5568 165.713 28.5265C166.559 28.5533 167.402 28.4068 168.189 28.0959C168.976 27.785 169.691 27.3162 170.29 26.7185C170.892 26.1056 171.362 25.3766 171.673 24.5759C171.984 23.7752 172.129 22.9197 172.098 22.0613C172.128 21.2048 171.983 20.3512 171.672 19.5526C171.361 18.7539 170.891 18.0268 170.29 17.4156C169.691 16.8179 168.976 16.3492 168.189 16.0382C167.402 15.7273 166.559 15.5808 165.713 15.6077C164.867 15.5774 164.023 15.7223 163.236 16.0334C162.448 16.3445 161.733 16.8151 161.136 17.4156C160.541 18.0299 160.076 18.758 159.77 19.5563C159.463 20.3546 159.32 21.2067 159.351 22.0613C159.32 22.9178 159.461 23.7718 159.768 24.5721C160.075 25.3724 160.54 26.1025 161.136 26.7185Z" fill="#4562AB"/>
<path d="M187.339 17.1641C187.339 17.7705 187.751 18.3083 188.552 18.6516C189.503 19.0871 190.496 19.4245 191.515 19.6586C192.679 19.9802 193.825 20.3622 194.948 20.8028C196.121 21.2119 197.161 21.9317 197.958 22.8854C198.794 24.01 199.222 25.3865 199.171 26.7874C199.22 27.8393 199.005 28.8868 198.545 29.8342C198.085 30.7816 197.395 31.5988 196.539 32.2112C194.608 33.5508 192.297 34.2328 189.948 34.1564C185.241 34.1564 182.037 32.3409 180.336 28.7097L185.462 25.8262C185.753 26.7629 186.358 27.5706 187.175 28.1127C187.992 28.6548 188.972 28.898 189.948 28.8013C192.065 28.8013 193.117 28.149 193.117 26.8331C193.117 26.2152 192.705 25.6889 191.904 25.3456C190.952 24.9068 189.96 24.5618 188.941 24.3157C187.776 23.9982 186.63 23.6162 185.508 23.1715C184.352 22.7156 183.334 21.9663 182.556 20.9974C181.725 19.9357 181.295 18.6146 181.343 17.267C181.302 16.2436 181.508 15.2253 181.942 14.2975C182.376 13.3697 183.026 12.5595 183.837 11.9348C185.593 10.6069 187.747 9.91314 189.948 9.96662C191.726 9.94316 193.481 10.3808 195.04 11.2368C196.584 12.0733 197.855 13.3364 198.701 14.8755L193.667 17.6218C193.363 16.9098 192.847 16.3084 192.19 15.8991C191.533 15.4898 190.767 15.2922 189.994 15.3332C189.325 15.3124 188.665 15.4874 188.094 15.8367C187.865 15.9744 187.675 16.1689 187.542 16.4014C187.41 16.6339 187.34 16.8966 187.339 17.1641Z" fill="#4562AB"/>
<path d="M214.595 9.9666C215.756 9.92817 216.911 10.1334 217.987 10.5689C219.063 11.0045 220.036 11.6608 220.843 12.4954C221.684 13.4388 222.33 14.539 222.745 15.733C223.159 16.9269 223.333 18.191 223.257 19.4526V33.5156H217.342V20.1849C217.384 19.548 217.296 18.909 217.084 18.3071C216.871 17.7051 216.539 17.1527 216.106 16.6834C215.669 16.2729 215.154 15.954 214.592 15.7456C214.03 15.5373 213.432 15.4438 212.833 15.4705C212.158 15.4388 211.483 15.5486 210.852 15.7929C210.222 16.0373 209.649 16.4108 209.172 16.8894C208.174 18.0739 207.681 19.6022 207.798 21.1461V33.5156H201.883V1.47614H207.798V13.182C209.217 11.046 211.483 9.97423 214.595 9.9666Z" fill="#4562AB"/>
<path d="M135.424 48.2765H134.28L130.847 44.9925V48.2765H129.955V38.7448H130.847V44.4661L134.085 41.4567H135.321L131.808 44.7293L135.424 48.2765Z" fill="#F39200"/>
<path d="M140.254 41.3083C140.716 41.3041 141.174 41.3931 141.6 41.57C142.027 41.747 142.413 42.0082 142.737 42.3381C143.396 43.0172 143.765 43.9263 143.765 44.8727C143.765 45.819 143.396 46.7282 142.737 47.4072C142.413 47.7371 142.027 47.9984 141.6 48.1753C141.174 48.3523 140.716 48.4413 140.254 48.4371C139.703 48.4612 139.155 48.3356 138.67 48.0737C138.184 47.8118 137.779 47.4233 137.496 46.9495V51.0002H136.604V41.4685H137.496V42.8073C137.778 42.3322 138.183 41.9421 138.669 41.6782C139.154 41.4144 139.702 41.2866 140.254 41.3083ZM138.274 46.7893C138.651 47.1614 139.13 47.4137 139.651 47.5145C140.171 47.6153 140.709 47.5602 141.198 47.356C141.687 47.1519 142.105 46.8078 142.399 46.367C142.693 45.9262 142.85 45.4083 142.851 44.8784C142.853 44.3475 142.697 43.8281 142.404 43.3855C142.111 42.9429 141.693 42.5971 141.203 42.3915C140.714 42.1859 140.175 42.1298 139.653 42.2303C139.132 42.3308 138.652 42.5833 138.274 42.956C137.774 43.4689 137.495 44.1566 137.495 44.8727C137.495 45.5887 137.774 46.2765 138.274 46.7893Z" fill="#F39200"/>
<path d="M148.4 41.3078C148.861 41.2916 149.321 41.3787 149.744 41.5629C150.168 41.747 150.545 42.0234 150.848 42.372C151.463 43.0701 151.797 43.9709 151.787 44.9008C151.795 45.0418 151.795 45.1832 151.787 45.3242H145.779C145.81 45.6418 145.904 45.95 146.055 46.231C146.207 46.5119 146.412 46.7599 146.66 46.9605C147.177 47.3774 147.828 47.5928 148.491 47.567C148.958 47.5808 149.42 47.4703 149.83 47.2466C150.186 47.0543 150.48 46.7645 150.677 46.4113L151.466 46.8804C151.164 47.3616 150.742 47.756 150.242 48.0247C149.694 48.3068 149.085 48.4484 148.468 48.4366C147.988 48.4557 147.508 48.3761 147.06 48.203C146.611 48.0298 146.203 47.7666 145.859 47.4297C145.525 47.0964 145.263 46.6978 145.09 46.2587C144.917 45.8197 144.836 45.3496 144.852 44.8779C144.84 44.4077 144.921 43.9397 145.092 43.5014C145.263 43.0632 145.52 42.6636 145.848 42.3262C146.18 41.9899 146.578 41.7258 147.018 41.5506C147.457 41.3754 147.927 41.2927 148.4 41.3078ZM148.4 42.1775C147.751 42.1625 147.12 42.3865 146.626 42.8068C146.148 43.2313 145.846 43.8189 145.779 44.4546H150.86C150.802 43.809 150.504 43.2087 150.025 42.7725C149.573 42.383 148.996 42.1715 148.4 42.1775Z" fill="#F39200"/>
<path d="M158.836 47.4073H159.786V50.1077H158.894V48.2769H153.332V50.1077H152.44V47.4073H153.264C153.775 46.6499 154.02 45.7444 153.962 44.8327V41.4685H158.836V47.4073ZM154.351 47.4073H157.91V42.3381H154.831V44.8327C154.872 45.7165 154.708 46.5978 154.351 47.4073Z" fill="#F39200"/>
<path d="M166.092 41.4685H166.858V48.2769H165.92V43.0362L161.869 48.2769H161.103V41.4685H162.007V46.7092L166.092 41.4685Z" fill="#F39200"/>
<path d="M173.665 41.4685V42.3381H171.251V48.2769H170.358V42.3381H167.944V41.4685H173.665Z" fill="#F39200"/>
<path d="M183.872 47.4187C183.538 47.7493 183.142 48.0097 182.705 48.1845C182.269 48.3594 181.802 48.4453 181.332 48.4371C180.862 48.4506 180.393 48.3672 179.956 48.192C179.519 48.0168 179.123 47.7536 178.792 47.4187C178.286 46.9193 177.941 46.2804 177.801 45.5836C177.66 44.8869 177.731 44.1641 178.004 43.5078C178.277 42.8515 178.739 42.2916 179.332 41.8997C179.925 41.5079 180.622 41.302 181.332 41.3083C182.04 41.3075 182.733 41.5167 183.322 41.9095C183.912 42.3023 184.372 42.861 184.643 43.515C184.915 44.169 184.987 44.8889 184.85 45.5837C184.713 46.2786 184.373 46.9171 183.872 47.4187ZM179.421 46.7894C179.93 47.2877 180.614 47.5667 181.326 47.5667C182.039 47.5667 182.723 47.2877 183.232 46.7894C183.731 46.2765 184.011 45.5888 184.011 44.8727C184.011 44.1566 183.731 43.4689 183.232 42.9561C182.723 42.4578 182.039 42.1787 181.326 42.1787C180.614 42.1787 179.93 42.4578 179.421 42.9561C178.922 43.4689 178.642 44.1566 178.642 44.8727C178.642 45.5888 178.922 46.2765 179.421 46.7894Z" fill="#F39200"/>
<path d="M191.197 41.4685H192.1V48.2769H191.197V45.3132H187.283V48.2769H186.379V41.4685H187.283V44.4436H191.197V41.4685Z" fill="#F39200"/>
<path d="M199.584 41.4685V48.2769H198.692V42.3381H195.671V45.3819C195.752 46.1999 195.518 47.018 195.018 47.6704C194.785 47.8921 194.503 48.0577 194.196 48.1548C193.889 48.2519 193.564 48.278 193.245 48.2311V47.3844C193.451 47.4246 193.664 47.4122 193.864 47.3481C194.064 47.2841 194.245 47.1706 194.389 47.0182C194.695 46.5135 194.827 45.923 194.767 45.3361V41.4685H199.584Z" fill="#F39200"/>
<path d="M207.353 41.4682H208.257V48.2766H207.365V46.9149C207.082 47.3887 206.676 47.7772 206.191 48.0391C205.705 48.301 205.158 48.4266 204.607 48.4025C204.145 48.4067 203.687 48.3177 203.26 48.1407C202.834 47.9637 202.447 47.7025 202.124 47.3726C201.465 46.6936 201.096 45.7844 201.096 44.8381C201.096 43.8917 201.465 42.9826 202.124 42.3035C202.447 41.9736 202.834 41.7124 203.26 41.5354C203.687 41.3585 204.145 41.2694 204.607 41.2737C205.159 41.2519 205.707 41.3798 206.192 41.6436C206.677 41.9075 207.083 42.2976 207.365 42.7727L207.353 41.4682ZM202.776 46.789C203.285 47.2873 203.969 47.5664 204.681 47.5664C205.394 47.5664 206.078 47.2873 206.586 46.789C206.953 46.4097 207.201 45.9313 207.298 45.4128C207.396 44.8944 207.34 44.3587 207.137 43.8719C206.934 43.385 206.592 42.9684 206.155 42.6734C205.717 42.3784 205.203 42.218 204.676 42.212C204.151 42.2252 203.642 42.3901 203.21 42.6868C202.777 42.9835 202.44 43.3992 202.239 43.8835C202.038 44.3679 201.982 44.9002 202.077 45.4158C202.172 45.9315 202.415 46.4085 202.776 46.789Z" fill="#F39200"/>
<path d="M215.122 41.4684H215.889V48.2768H214.985V43.036L210.923 48.2768H210.167V41.4684H211.06V46.7091L215.122 41.4684ZM211.255 40.3241V39.5918H214.79V40.3813L211.255 40.3241Z" fill="#F39200"/>
<path d="M222.583 41.4685H223.487V48.2769H222.583V45.3132H218.67V48.2769H217.766V41.4685H218.67V44.4436H222.583V41.4685Z" fill="#F39200"/>
</svg>
