<?xml version="1.0" encoding="UTF-8"?>
<svg width="122px" height="40px" viewBox="0 0 122 40" version="1.1" xmlns="http://www.w3.org/2000/svg" xmlns:xlink="http://www.w3.org/1999/xlink">
    <!-- Generator: Sketch 52.2 (67145) - http://www.bohemiancoding.com/sketch -->
    <title>mdpi/Visa_Inc._logo</title>
    <desc>Created with Sketch.</desc>
    <g id="Page-1" stroke="none" stroke-width="1" fill="none" fill-rule="evenodd">
        <g id="Turbocash_WEB_2" transform="translate(-1216.000000, -2570.000000)">
            <g id="Footer" transform="translate(-1.000000, 2440.000000)">
                <g id="Visa_Inc._logo" transform="translate(1217.000000, 130.000000)">
                    <polygon id="polygon9" fill="#00579F" points="52.9303685 39.2685481 43.081039 39.2685481 49.2415154 1.17678999 59.0903063 1.17678999"></polygon>
                    <path d="M88.6350632,2.10802479 C86.6923426,1.337292 83.6110273,0.486308206 79.8009897,0.486308206 C70.0744604,0.486308206 63.225118,5.67300056 63.1831075,13.0884087 C63.1023179,18.5594805 68.0870362,21.5982466 71.815207,23.4224758 C75.6257831,25.2865612 76.9211097,26.5032526 76.9211097,28.1648254 C76.8823307,30.7166996 73.8419488,31.8929961 71.0062338,31.8929961 C67.0739346,31.8929961 64.9669418,31.2865355 61.7649807,29.866793 L60.4680383,29.258178 L59.0897677,37.8089493 C61.3998117,38.8613685 65.6558078,39.7952963 70.0744604,39.8362297 C80.4090661,39.8362297 87.137224,34.7297883 87.2169364,26.8274882 C87.256254,22.491241 84.6241289,19.168634 78.9494673,16.4535649 C75.5045987,14.7106639 73.394913,13.5354445 73.394913,11.7521487 C73.4353078,10.1309707 75.179286,8.47047513 79.0679587,8.47047513 C82.2699199,8.38914694 84.6225131,9.15880253 86.4047317,9.92899672 L87.2955717,10.3334833 L88.6350632,2.10802479 Z" id="path11" fill="#00579F"></path>
                    <path d="M101.725672,25.7739918 C102.536799,23.5856708 105.657971,15.1162277 105.657971,15.1162277 C105.617037,15.1975559 106.467482,12.8875119 106.953836,11.4693851 L107.642163,14.7515973 C107.642163,14.7515973 109.507326,23.8695116 109.912351,25.7739918 C108.37304,25.7739918 103.671085,25.7739918 101.725672,25.7739918 Z M113.883429,1.17678999 L106.26497,1.17678999 C103.915608,1.17678999 102.130697,1.86511739 101.117057,4.33727917 L86.487137,39.2680095 L96.8217428,39.2680095 C96.8217428,39.2680095 98.5231717,34.5665933 98.8888793,33.5540303 C100.022627,33.5540303 110.076085,33.5540303 111.534606,33.5540303 C111.81737,34.8913675 112.709826,39.2680095 112.709826,39.2680095 L121.829356,39.2680095 L113.883429,1.17678999 Z" id="path13" fill="#00579F" fill-rule="nonzero"></path>
                    <path d="M34.8545033,1.17678999 L25.2087636,27.1517238 L24.1547286,21.8837032 C22.3714328,15.8050937 16.7786381,9.20081312 10.5373721,5.91698516 L19.3725228,39.2281533 L29.7879181,39.2281533 L45.26936,1.17678999 L34.8545033,1.17678999 Z" id="path15" fill="#00579F"></path>
                    <path d="M16.2518899,1.17678999 L0.405279004,1.17678999 L0.243161206,1.94644559 C12.6045087,5.10747336 20.7911882,12.7270099 24.1547286,21.885319 L20.70986,4.37875116 C20.142717,1.94590699 18.399816,1.257041 16.2518899,1.17678999 Z" id="path17" fill="#FAA61A"></path>
                </g>
            </g>
        </g>
    </g>
</svg>